<svg xmlns="http://www.w3.org/2000/svg" viewBox="0 0 101.57 25.624"><path d="M41.33 24.62c-.34-.55-.168-1 .382-1s1.278.45 1.618 1c.34.55.168 1-.382 1s-1.278-.45-1.618-1zm43 0c-.71-1.15.91-1.15 4.5 0 2.387.765 2.356.805-.691.9-1.755.055-3.47-.35-3.809-.9zm12.5.014c1.217-.954.98-1.062-1.259-.574-2.63.575-9.553-1.962-8.427-3.087.275-.275 1.87.208 3.543 1.073 3.464 1.791 4.51 1.978 3.696.66-.311-.504 0-1.143.69-1.422.759-.305.563-.537-.493-.585-1.84-.083-2.513-2.079-.7-2.079 1.97 0 7.017 3.083 6.477 3.957-.297.48.026 1.1.717 1.379.79.318.637.535-.412.585-.918.044-2.493.347-3.5.673-1.559.506-1.608.42-.332-.58zm-49.861-2.047c-3.066-2.555-1.41-2.525 1.86.033 1.376 1.076 2.05 1.95 1.5 1.945-.55-.006-2.062-.897-3.36-1.978zM73.83 20.62c-1.293-.835-1.266-.971.191-.985.93-.008 1.97.435 2.309.985.782 1.266-.542 1.266-2.5 0zM4.964 16.743c3.84-4.422 5.564-5.145 11.866-4.973 2.475.067 3.487.317 2.25.556-1.238.238-2.25.852-2.25 1.363 0 .512-.951.93-2.114.93-2.385 0-9.886 3.934-9.886 5.185 0 .449-.727.816-1.616.816-1.187 0-.723-1.03 1.75-3.877zm43.895 1.916c-.81-.512-1.21-1.19-.893-1.509.319-.318 1.148.108 1.844.946 1.443 1.738 1.166 1.902-.951.563zm16.471-.039c-.34-.55-1.465-1-2.5-1s-2.135-.41-2.445-.91c-.572-.926 9.184 1.316 10.215 2.347.31.31-.61.563-2.044.563s-2.886-.45-3.226-1zm8-2.038l-6-1.802 6-.073c4.404-.054 6.798.454 9 1.913l3 1.987-3-.112c-1.65-.061-5.7-.922-9-1.913zm13.242-.876c-3.824-2.451-4.33-3.086-2.465-3.086.886 0 2.874 1.11 4.417 2.468 3.237 2.848 2.092 3.21-1.952.618zM.1 16.016c.332-.332 1.195-.368 1.917-.08.797.32.56.557-.604.605-1.055.043-1.645-.193-1.313-.525zm47.229-3.447c-3.577-2.216-5.945-4.363-5.864-5.317.127-1.483-4.823-3.611-8.436-3.626-1.875-.008-6.985 2.78-9.253 5.047-2.063 2.063-3.947 2.555-3.947 1.031 0-1.22 7.146-6.833 10.082-7.919 1.28-.473 4.011-.482 6.07-.02 2.59.582 5.625.358 9.865-.728 7.706-1.974 12.741-1.188 17.7 2.762 2.08 1.659 5.021 3.658 6.534 4.444 2.692 1.398 3.965 4.048 1.5 3.121-4.787-1.799-5.73-1.854-5.133-.298.463 1.207.169 1.415-1.256.888-1.024-.378-2.086-.97-2.361-1.314-1.31-1.64-7.835-6.02-8.967-6.02-1.035 0-1.036.292-.007 1.532 1.114 1.343.945 1.407-1.378.525-3.182-1.21-3.624.35-.563 1.989 1.147.614 1.848 1.354 1.558 1.644-.29.29-1.792-.362-3.336-1.45-1.544-1.088-3.82-2.292-5.058-2.676-3.326-1.033-2.81 1.21.744 3.232 1.647.937 2.997 2.041 3 2.454.004.412.626.75 1.384.75 1.368 0 4.266 2.767 3.515 3.356-.216.17-3.093-1.364-6.393-3.408zM63.1 14.016c.332-.332 1.195-.368 1.917-.08.797.32.56.557-.604.605-1.055.043-1.645-.193-1.313-.525zm-6.844-1.875c-1.06-.801-1.477-1.465-.927-1.474 1.486-.024 4.026 1.76 3.398 2.388-.299.3-1.411-.112-2.47-.914zm19.573-.521c0-1.187 1.737-1.187 4.5 0 1.676.72 1.474.87-1.25.93-1.787.038-3.25-.38-3.25-.93z"/></svg>