<svg version="1.0" xmlns="http://www.w3.org/2000/svg" width="30" height="25" viewBox="0 0 1280 1270"><path d="M489.5 1.1C328.2 11.3 178.3 97.9 88.3 233 18.9 337.3-10.8 460.3 3.6 585c18.5 160.7 112.1 305.8 250.9 388.7 67.7 40.5 136.1 63.2 218 72.3 15.6 1.8 71.6 2.4 89.5 1.1 87-6.7 172.9-34.9 242.4-79.8l6.9-4.5 151.6 151.5c83.4 83.3 153.2 152.3 155.1 153.4 5.2 2.7 19.3 2.5 28.5-.6 10-3.3 24.7-11.1 33.6-17.8 12.3-9.3 20.5-17.1 49.3-46.9 28.6-29.4 35.7-38.3 43.1-54 7.4-15.5 9.4-31.7 5.1-40.4-1-1.9-69.6-71.4-154.4-156.2-147.9-148-152.6-152.9-151.3-155 26.2-42 49.7-99.1 62-150.8 15.1-63.6 18.1-133.3 8.5-199.5-18-124.3-84-242.1-181.4-323.7C756.9 35.6 625.5-7.5 489.5 1.1zm59 173.9c109.9 8.2 206.5 64.5 267.3 156 31 46.6 49.2 96.8 56.4 156 1.7 14 1.7 60.2-.1 74.5-7.2 59.7-26.4 111.9-58.8 159.5-42.7 62.6-104.8 110.2-175.3 134.2-36.9 12.5-67 17.8-107 18.5-27.1.5-44-.7-67.2-4.7-156.5-27.3-275.5-157.4-288.9-315.8-1.5-17.9-.6-58.2 1.6-74.2 5.5-39.8 15.5-72.9 33-108.5 18.3-37.4 39.6-67 69.5-96.4 70.6-69.6 170.7-106.4 269.5-99.1z"/></svg>